<?xml version="1.0" encoding="UTF-8" standalone="no"?>
<svg
   xmlns:dc="http://purl.org/dc/elements/1.1/"
   xmlns:cc="http://creativecommons.org/ns#"
   xmlns:rdf="http://www.w3.org/1999/02/22-rdf-syntax-ns#"
   xmlns:svg="http://www.w3.org/2000/svg"
   xmlns="http://www.w3.org/2000/svg"
   id="svg8"
   version="1.1"
   viewBox="0 0 96.826126 85.640259"
   height="85.640259mm"
   width="96.826126mm">
  <defs
     id="defs2" />
  <metadata
     id="metadata5">
    <rdf:RDF>
      <cc:Work
         rdf:about="">
        <dc:format>image/svg+xml</dc:format>
        <dc:type
           rdf:resource="http://purl.org/dc/dcmitype/StillImage" />
        <dc:title></dc:title>
      </cc:Work>
    </rdf:RDF>
  </metadata>
  <g
     transform="translate(-50.997352,-29.396944)"
     id="layer1">
    <g
       transform="matrix(0.96954411,0,0,0.96954411,31.25154,-90.527253)"
       id="g1307">
      <g
         id="g1070"
         transform="matrix(0.85189351,0,0,0.85189351,54.256387,130.75903)"
         style="fill:#c62828;fill-opacity:1">
        <path
           id="path1051"
           d="M 24,4 C 12.96,4 4,12.96 4,24 4,35.05 12.96,44 24,44 35.04,44 44,35.04 44,24 44,12.96 35.04,4 24,4 Z m 0,34.98 C 15.19,38.98 9.02,32.19 9.02,24 9.02,15.82 15.81,9.02 24,9.02 c 8.18,0 15.02,6.68 15.02,14.86 0,8.19 -6.21,15.1 -15.02,15.1 z"
           style="fill:#c62828;fill-opacity:1" />
        <path
           id="path1053"
           d="m 35.59,31.129 c 0,0 -4.197,7.217 -13.375,6.246 -8.894,-0.951 -10.6,-8.423 -10.688,-8.894 1.912,3.52 4.756,6.217 11.58,6.217 7.129,0 9.806,-5.354 9.806,-5.354 z"
           style="fill:#c62828;fill-opacity:1" />
        <path
           id="path1055"
           d="m 36.482,30.236 -3.569,-1.775 c 0,0 -3.569,5.344 -9.806,5.344 -6.903,0 -8.796,-3.354 -8.903,-3.559 3.412,3.402 8.09,3.059 11.58,1.775 7.815,-2.863 7.129,-9.806 7.129,-9.806 h 4.462 c 0,0 0.892,5.354 -0.893,8.021 z"
           style="fill:#c62828;fill-opacity:1" />
        <path
           id="path1057"
           d="m 32.021,21.323 c 0,0 0.392,7.227 -6.236,9.806 -3.491,1.363 -6.884,0.098 -7.129,0 0,0 2.628,0.471 4.452,0 3.569,-0.892 5.256,-2.491 6.236,-4.452 2.677,-5.354 -0.883,-8.913 -0.883,-8.913 l 4.452,-3.569 c 0,0 4.256,3.677 4.462,7.129 h -5.354 z"
           style="fill:#c62828;fill-opacity:1" />
      </g>
      <g
         id="g1104"
         transform="matrix(0.13911816,0,0,0.13911816,36.191484,135.36901)">
        <g
           id="g1102">
          <path
             id="path1072"
             d="m 451.052,140.92 -14.768,6.16 12.056,28.92 h -52.672 v 16 h 59.336 l 20,48 -20,48 H 332.98 c -21.408,-19.792 -49.92,-32 -81.312,-32 -31.392,0 -59.904,12.208 -81.312,32 H 35.668 v 16 h 120.224 c -15.136,20.08 -24.224,44.968 -24.224,72 0,66.168 53.832,120 120,120 66.168,0 120,-53.832 120,-120 0,-27.032 -9.088,-51.92 -24.224,-72 H 448.34 l -12.048,28.92 14.768,6.16 L 492.332,240 Z M 355.668,376 c 0,57.344 -46.656,104 -104,104 -57.344,0 -104,-46.656 -104,-104 0,-57.344 46.656,-104 104,-104 57.344,0 104,46.656 104,104 z"
             style="fill:#c62828" />
          <rect
             id="rect1078"
             height="16"
             width="16"
             y="288"
             x="3.668"
             style="fill:#c62828" />
          <rect
             id="rect1080"
             height="16"
             width="16"
             y="120"
             x="3.668"
             style="fill:#c62828" />
          <rect
             id="rect1082"
             height="16"
             width="80"
             y="120"
             x="35.667999"
             style="fill:#c62828" />
          <rect
             id="rect1084"
             height="16"
             width="16"
             y="88"
             x="19.667999"
             style="fill:#c62828" />
          <rect
             id="rect1086"
             height="16"
             width="88"
             y="87.996727"
             x="51.694012"
             style="fill:#c62828" />
          <rect
             id="rect1088"
             height="16"
             width="16"
             y="56"
             x="35.667999"
             style="fill:#c62828" />
          <rect
             id="rect1090"
             height="16"
             width="80"
             y="56.037491"
             x="68.448662"
             style="fill:#c62828" />
          <path
             id="path1092"
             d="m 251.668,288 c -48.52,0 -88,39.48 -88,88 v 8 h 8 8 8 v -16 h -7.528 c 0.816,-7.336 2.744,-14.328 5.592,-20.832 l 6.512,3.76 8,-13.856 -6.448,-3.728 c 4.288,-5.808 9.416,-10.928 15.216,-15.216 l 3.728,6.448 13.856,-8 -3.76,-6.512 c 6.504,-2.856 13.496,-4.776 20.832,-5.592 V 312 h 16 v -7.528 c 7.336,0.816 14.328,2.736 20.832,5.592 l -3.76,6.512 13.856,8 3.728,-6.448 c 5.808,4.288 10.928,9.416 15.216,15.216 l -6.448,3.728 8,13.856 6.512,-3.76 c 2.856,6.504 4.776,13.496 5.592,20.832 h -7.528 v 16 h 8 8 8 v -8 c 0,-48.52 -39.48,-88 -88,-88 z"
             style="fill:#c62828" />
          <rect
             id="rect1094"
             height="68.813004"
             width="15.991"
             transform="matrix(-0.8137,-0.5812,0.5812,-0.8137,267.1917,861.6022)"
             y="353.58301"
             x="263.65399"
             style="fill:#c62828" />
          <rect
             id="rect1096"
             height="16"
             width="16"
             y="440"
             x="243.668"
             style="fill:#c62828" />
          <rect
             id="rect1098"
             height="16"
             width="16"
             y="440"
             x="275.668"
             style="fill:#c62828" />
          <rect
             id="rect1100"
             height="16"
             width="16"
             y="440"
             x="211.668"
             style="fill:#c62828" />
        </g>
      </g>
    </g>
    <g
       transform="matrix(0.13911816,0,0,0.13911816,64.789324,82.71691)"
       id="g1108" />
    <g
       transform="matrix(0.13911816,0,0,0.13911816,64.789324,82.71691)"
       id="g1110" />
    <g
       transform="matrix(0.13911816,0,0,0.13911816,64.789324,82.71691)"
       id="g1112" />
    <g
       transform="matrix(0.13911816,0,0,0.13911816,64.789324,82.71691)"
       id="g1114" />
    <g
       transform="matrix(0.13911816,0,0,0.13911816,64.789324,82.71691)"
       id="g1116" />
    <g
       transform="matrix(0.13911816,0,0,0.13911816,64.789324,82.71691)"
       id="g1118" />
    <g
       transform="matrix(0.13911816,0,0,0.13911816,64.789324,82.71691)"
       id="g1120" />
    <g
       transform="matrix(0.13911816,0,0,0.13911816,64.789324,82.71691)"
       id="g1122" />
    <g
       transform="matrix(0.13911816,0,0,0.13911816,64.789324,82.71691)"
       id="g1124" />
    <g
       transform="matrix(0.13911816,0,0,0.13911816,64.789324,82.71691)"
       id="g1126" />
    <g
       transform="matrix(0.13911816,0,0,0.13911816,64.789324,82.71691)"
       id="g1128" />
    <g
       transform="matrix(0.13911816,0,0,0.13911816,64.789324,82.71691)"
       id="g1130" />
    <g
       transform="matrix(0.13911816,0,0,0.13911816,64.789324,82.71691)"
       id="g1132" />
    <g
       transform="matrix(0.13911816,0,0,0.13911816,64.789324,82.71691)"
       id="g1134" />
    <g
       transform="matrix(0.13911816,0,0,0.13911816,64.789324,82.71691)"
       id="g1136" />
  </g>
</svg>
